<svg id="Layer_1" data-name="Layer 1" xmlns="http://www.w3.org/2000/svg" viewBox="0 0 161.02 150.41"><defs><style>.cls-1{fill:#dce0df;stroke:#dce0df;stroke-miterlimit:10;}</style></defs><title>icon2</title><g id="Layer_3" data-name="Layer 3"><path class="cls-1" d="M141.58,30.55c.86,2.63.89,3.47,1.67,4.67a9.15,9.15,0,0,0,4.33,3.33C153.11,41,164.26,61.68,159.26,84c-1.91,8.54-5.52,14.38-8.55,19.26-6.63,10.7-14.18,17-21.21,22.91a123.52,123.52,0,0,1-22.92,15.36c-10.09,5.14-15.78,8-24,8.33-9.28.33-16.13-2.85-24.33-6.66-10-4.66-16.39-9.91-25-17-7.83-6.45-14.11-11.69-20.67-20.34C6.46,97.82,2.83,93,1.25,85.55c-2.87-13.5,3.2-25.07,6.66-31.67A65.39,65.39,0,0,1,25,33.29,42.69,42.69,0,0,1,41,.63a73.38,73.38,0,0,1,21,26.3,76.9,76.9,0,0,1,41.56,1,64.52,64.52,0,0,1,22-25.66c3.93,5.33,6.85,10,8.93,13.45a74,74,0,0,1,5.18,10C141.15,29.24,141.58,30.55,141.58,30.55Z" transform="translate(0 0.01)"/></g><g id="Layer_2" data-name="Layer 2"><path d="M69.77,75.92a57.25,57.25,0,0,0-10.66-3.55,53.76,53.76,0,0,0-24.27.17c.87-1,12-13.81,24.41-7.61C64.69,67.65,68.1,72.88,69.77,75.92Z" transform="translate(0 0.01)"/><path d="M39.86,71" transform="translate(0 0.01)"/><path d="M34.84,72.55a8.18,8.18,0,0,1-3.26-2.1,11.54,11.54,0,0,1-2.87-7.27A14.38,14.38,0,0,0,32.62,68a11.79,11.79,0,0,0,5,2.33s-5-4.91-5.94-8.39c0,0,5.8,8.13,9.06,6.38,0,0-3.91-2.59-5.38-5.78,0,0,6.54,4.93,8.92,3.9,0,0-2.7-.71-5.18-6.17a11.06,11.06,0,0,0,5.48,4.09,9.22,9.22,0,0,0,4.14.33" transform="translate(0 0.01)"/><path d="M-22.75,2.38" transform="translate(0 0.01)"/><path d="M90.08,75.77a60.09,60.09,0,0,1,11-3.48,57.2,57.2,0,0,1,25.11.4c-.9-1-12.34-14-25.21-7.88C95.39,67.55,91.83,72.72,90.08,75.77Z" transform="translate(0 0.01)"/><path d="M126.25,72.69a8,8,0,0,0,3.22-2.08,11.57,11.57,0,0,0,2.83-7.28,14.12,14.12,0,0,1-3.86,4.85,11.81,11.81,0,0,1-5,2.34s5-4.91,5.89-8.4c0,0-5.74,8.13-9,6.39,0,0,3.87-2.6,5.32-5.78,0,0-6.47,4.92-8.82,3.9,0,0,2.67-.72,5.12-6.18a11,11,0,0,1-5.37,4.1,9,9,0,0,1-4.09.32" transform="translate(0 0.01)"/><polygon points="75.66 93.09 85.04 93.09 80.35 101.98 75.66 93.09"/><path class="cls-1" d="M149.92,45.78" transform="translate(0 0.01)"/><path class="cls-1" d="M136.91,27.22" transform="translate(0 0.01)"/><polygon points="82.39 97.95 133.08 94.98 82.04 98.79 82.39 97.95"/><polygon points="79.86 96.7 118.52 92.38 79.62 97.67 79.86 96.7"/><polygon points="79.23 97.68 27.85 94.94 79.62 98.79 79.23 97.68"/><polygon points="79.28 96.69 36.9 90.6 79.52 97.67 79.28 96.69"/></g></svg>