<svg xmlns="http://www.w3.org/2000/svg" viewBox="0 0 161.02 150.42"><defs><style>.cls-1{fill:#231f20;stroke:#231f20;stroke-miterlimit:10;}.cls-2{fill:#fff;}</style></defs><title>icon1</title><g id="Layer_3" data-name="Layer 3"><path class="cls-1" d="M486,237c.86,2.63.89,3.47,1.67,4.67A9.15,9.15,0,0,0,492,245c5.53,2.49,16.68,23.13,11.68,45.47-1.91,8.54-5.52,14.38-8.55,19.26-6.63,10.7-14.18,17-21.21,22.91A123.41,123.41,0,0,1,451,348c-10.09,5.14-15.78,8-24,8.33-9.28.33-16.13-2.85-24.33-6.66-10-4.66-16.39-9.91-25-17-7.83-6.45-14.11-11.69-20.67-20.34-6.12-8.06-9.75-12.85-11.33-20.33-2.87-13.5,3.2-25.07,6.66-31.67a65.4,65.4,0,0,1,17.11-20.59,42.69,42.69,0,0,1,16-32.66,73.35,73.35,0,0,1,21,26.3A76.82,76.82,0,0,1,423.67,231,77.66,77.66,0,0,1,448,234.34a64.51,64.51,0,0,1,22-25.66c3.93,5.33,6.85,9.95,8.93,13.45a73.33,73.33,0,0,1,5.18,10C485.57,235.69,486,237,486,237Z" transform="translate(-344.42 -206.45)"/></g><g id="Layer_2" data-name="Layer 2"><path class="cls-2" d="M414.19,282.37a56.93,56.93,0,0,0-10.66-3.55,53.76,53.76,0,0,0-24.27.17c.87-1,12-13.81,24.41-7.61C409.11,274.1,412.52,279.33,414.19,282.37Z" transform="translate(-344.42 -206.45)"/><path class="cls-2" d="M384.28,277.43" transform="translate(-344.42 -206.45)"/><path class="cls-2" d="M379.26,279A8.15,8.15,0,0,1,376,276.9a11.52,11.52,0,0,1-2.87-7.27,14.4,14.4,0,0,0,3.91,4.85,11.77,11.77,0,0,0,5,2.33s-5-4.91-5.94-8.39c0,0,5.8,8.13,9.06,6.38,0,0-3.91-2.59-5.38-5.78,0,0,6.54,4.93,8.92,3.9,0,0-2.7-.71-5.18-6.17a11.12,11.12,0,0,0,5.48,4.09,9.21,9.21,0,0,0,4.14.33" transform="translate(-344.42 -206.45)"/><path class="cls-2" d="M321.67,208.83" transform="translate(-344.42 -206.45)"/><path class="cls-2" d="M434.5,282.22a59.79,59.79,0,0,1,11.05-3.48,57.18,57.18,0,0,1,25.11.4c-.9-1.05-12.34-14-25.21-7.88C439.81,274,436.25,279.17,434.5,282.22Z" transform="translate(-344.42 -206.45)"/><path class="cls-2" d="M470.67,279.14a8,8,0,0,0,3.22-2.08,11.6,11.6,0,0,0,2.83-7.28,14.15,14.15,0,0,1-3.86,4.85,11.79,11.79,0,0,1-5,2.34s5-4.91,5.89-8.4c0,0-5.74,8.13-9,6.39,0,0,3.87-2.6,5.32-5.78,0,0-6.47,4.92-8.82,3.9,0,0,2.67-.72,5.12-6.18A11,11,0,0,1,461,271a9.11,9.11,0,0,1-4.09.32" transform="translate(-344.42 -206.45)"/><polygon class="cls-2" points="75.66 93.08 85.04 93.08 80.35 101.97 75.66 93.08"/><path class="cls-1" d="M494.34,252.23" transform="translate(-344.42 -206.45)"/><path class="cls-1" d="M481.33,233.67" transform="translate(-344.42 -206.45)"/><polygon class="cls-2" points="82.39 97.94 133.08 94.97 82.04 98.78 82.39 97.94"/><polygon class="cls-2" points="79.86 96.69 118.52 92.37 79.62 97.66 79.86 96.69"/><polygon class="cls-2" points="79.23 97.67 27.85 94.93 79.62 98.78 79.23 97.67"/><polygon class="cls-2" points="79.28 96.68 36.9 90.59 79.52 97.66 79.28 96.68"/></g></svg>